# AST/ASF file generated using VICON BodyLanguage
# -----------------------------------------------
:version 1.10
:name VICON
:units
  mass 1.0
  length 0.45
  angle deg
:documentation
   .ast/.asf automatically generated from VICON data using
   VICON BodyBuilder and BodyLanguage model FoxedUp or BRILLIANT.MOD
:root
   order TX TY TZ RX RY RZ
   axis XYZ
   position 0 0 0  
   orientation 0 0 0 
:bonedata
  begin
     id 1 
     name lhipjoint
     direction 0.606768 -0.715223 0.346827 
     length 2.41543 
     axis 0 0 0  XYZ
  end
  begin
     id 2 
     name lfemur
     direction 0.34202 -0.939693 0  
     length 7.2778  
     axis 0 0 20  XYZ
    dof rx ry rz
    limits (-160.0 20.0)
           (-70.0 70.0)
           (-60.0 70.0)
  end
  begin
     id 3 
     name ltibia
     direction 0.34202 -0.939693 0   
     length 7.61811   
     axis 0 0 20   XYZ
    dof rx
    limits (-10.0 170.0)
  end
  begin
     id 4 
     name lfoot
     direction 0.0823924 -0.226371 0.97055   
     length 2.33618   
     axis -90 7.62852e-016 20   XYZ
    dof rx rz
    limits (-45.0 90.0)
           (-70.0 20.0)
  end
  begin
     id 5 
     name ltoes
     direction 1.53554e-011 -4.21934e-011 1   
     length 1.17015   
     axis -90 7.62852e-016 20   XYZ
    dof rx
    limits (-90.0 20.0)
  end
  begin
     id 6 
     name rhipjoint
     direction -0.6077 -0.714582 0.346516   
     length 2.4176  
     axis 0 0 0  XYZ 
  end
  begin
     id 7 
     name rfemur
     direction -0.34202 -0.939693 0   
     length 7.28127   
     axis 0 0 -20   XYZ
    dof rx ry rz
    limits (-160.0 20.0)
           (-70.0 70.0)
           (-70.0 60.0)
  end
  begin
     id 8 
     name rtibia
     direction -0.34202 -0.939693 0   
     length 7.77648   
     axis 0 0 -20   XYZ
    dof rx
    limits (-10.0 170.0)
 end
 begin
     id 9 
     name rfoot
     direction -0.0809463 -0.222398 0.97159   
     length 2.37533  
     axis -90 -7.62852e-016 -20   XYZ
    dof rx rz
    limits (-45.0 90.0)
           (-20.0 70.0)
  end
  begin
     id 10 
     name rtoes
     direction -1.53568e-011 -4.21714e-011 1   
     length 1.18972   
     axis -90 -7.62852e-016 -20   XYZ
    dof rx
    limits (-90.0 20.0)
  end
  begin
     id 11 
     name lowerback
     direction 0.010968 0.991932 -0.126297   
     length 2.21698   
     axis 0 0 0   XYZ
    dof rx ry rz
    limits (-20.0 45.0)
           (-30.0 30.0)
           (-30.0 30.0)
  end
  begin
     id 12 
     name upperback
     direction 0.0167007 0.997503 -0.0686276   
     length 2.22371   
     axis 0 0 0   XYZ
    dof rx ry rz
    limits (-20.0 45.0)
           (-30.0 30.0)
           (-30.0 30.0)
  end
  begin
     id 13 
     name thorax
     direction 0.0111721 0.999885 -0.0102878   
     length 2.25242   
     axis 0 0 0   XYZ
    dof rx ry rz
    limits (-20.0 45.0)
           (-30.0 30.0)
           (-30.0 30.0)
  end
  begin
     id 14 
     name lowerneck
     direction -0.0120265 0.990428 0.137508   
     length 1.57674   
     axis 0 0 0   XYZ
    dof rx ry rz
    limits (-20.0 45.0)
           (-30.0 30.0)
           (-30.0 30.0)
  end
  begin
     id 15 
     name upperneck
     direction 0.0175669 0.998907 0.0433089   
     length 1.5618   
     axis 0 0 0   XYZ
    dof rx ry rz
    limits (-20.0 45.0)
           (-30.0 30.0)
           (-30.0 30.0)
  end
  begin
     id 16
     name head
     direction 0.00754609 0.99997 0.00185367  
     length 1.60579  
     axis 0 0 0   XYZ
    dof rx ry rz
    limits (-20.0 45.0)
           (-30.0 30.0)
           (-30.0 30.0)
  end
  begin
     id 17 
     name lclavicle
     direction 0.885866 0.429166 -0.176231  
     length 3.44967  
     axis 0 0 0   XYZ
    dof ry rz
    limits (-20.0 10.0)
           (0.0 20.0)
  end
  begin
     id 18 
     name lhumerus
     direction 1 -4.48973e-011 -1.90255e-027   
     length 5.20607   
     axis 180 -30 -90   XYZ
    dof rx ry rz
    limits (-60.0 90.0)
           (-90.0 90.0)
           (-90.0 90.0)
  end
  begin
     id 19
     name lradius
     direction 1 -4.48956e-011 9.87925e-027   
     length 3.39961   
     axis 180 -30 -90   XYZ
    dof rx
    limits (-10.0 170.0)
  end
  begin
     id 20
     name lwrist
     direction 1 -4.48985e-011 1.73247e-026   
     length 1.6998   
     axis -9.60847e-015 90 90   XYZ
    dof ry
    limits (-180.0 0.0)
 end
  begin
     id 21 
     name lhand
     direction 1 -4.48798e-011 3.46119e-026   
     length 0.519693   
     axis -2.21073e-014 90 90   XYZ
    dof rx rz
    limits (-90.0 90.0)
           (-45.0 45.0)
  end
  begin
     id 22 
     name lfingers
     direction 1 -4.48938e-011 6.92797e-026   
     length 0.41899   
     axis -4.42155e-014 90 90   XYZ
    dof rx
    limits (0.0 90.0)
  end
  begin
     id 23
     name lthumb
     direction 0.707107 -6.34952e-011 0.707107   
     length 0.601588   
     axis -90 45 6.0103e-014   XYZ
    dof rx rz
    limits (-45.0 45.0)
           (-45.0 45.0)
  end
  begin
     id 24 
     name rclavicle
     direction -0.866736 0.456792 -0.200276   
     length 3.45032  
     axis 0 0 0   XYZ 
    dof ry rz
    limits (-10.0 20.0)
           (-20.0 0.0)
  end
  begin
     id 25 
     name rhumerus
     direction -1 -4.4897e-011 8.65094e-028  
     length 5.32214   
     axis 180 30 90   XYZ
    dof rx ry rz
    limits (-90.0 60.0)
           (-90.0 90.0)
           (-90.0 90.0)
  end
  begin
     id 26 
     name rradius
     direction -1 -4.48987e-011 1.08427e-026   
     length 3.51208   
     axis 180 30 90   XYZ
    dof rx
    limits (-10.0 170.0)
  end
  begin
     id 27 
     name rwrist
     direction -1 -4.48961e-011 1.73222e-026   
     length 1.75604   
     axis -9.60847e-015 -90 -90   XYZ
    dof ry
    limits (-180.0 0.0)
  end
  begin
     id 28
     name rhand
     direction -1 -4.48895e-011 3.46314e-026   
     length 0.586681   
     axis -2.21073e-014 -90 -90   XYZ
    dof rx rz
    limits (-90.0 90.0)
           (-45.0 45.0)
  end
  begin
     id 29
     name rfingers
     direction -1 -4.48968e-011 6.92916e-026   
     length 0.472997   
     axis -4.42155e-014 -90 -90   XYZ
    dof rx
    limits (0.0 90.0)
  end
  begin
     id 30
     name rthumb
     direction -0.707107 -6.34848e-011 0.707107   
     length 0.679133   
     axis -90 -45 -6.0103e-014   XYZ
    dof rx rz
    limits (-45.0 45.0)
           (-45.0 45.0)
  end
:hierarchy
  begin
    root lhipjoint rhipjoint lowerback
    lhipjoint lfemur
    lfemur ltibia
    ltibia lfoot
    lfoot ltoes
    rhipjoint rfemur
    rfemur rtibia
    rtibia rfoot
    rfoot rtoes
    lowerback upperback
    upperback thorax
    thorax lowerneck lclavicle rclavicle
    lowerneck upperneck
    upperneck head
    lclavicle lhumerus
    lhumerus lradius
    lradius lwrist
    lwrist lhand lthumb
    lhand lfingers
    rclavicle rhumerus
    rhumerus rradius
    rradius rwrist
    rwrist rhand rthumb
    rhand rfingers
  end

#!OML:ASF H:\Dans Jumps\Project 1\Capture day 1\Session 1\subject.ASF
:FULLY-SPECIFIED
:DEGREES
22
root 0.462069 17.5629 -13.7877 5.96059 -0.731222 -1.63296
lowerback -1.04981 -0.351884 0.350764
upperback 4.39276 -0.55674 1.62878
thorax 5.13858 -0.300366 1.45828
lowerneck -15.9725 0.657632 -2.25992
upperneck 25.8698 1.52491 0.160841
head 10.9809 0.487865 0.65536
rclavicle -3.23025e-015 -1.98785e-016
rhumerus -18.3543 -11.0302 -84.8051
rradius 24.3318
rwrist 32.1862
rhand -19.3798 -26.3969
rfingers 7.12502
rthumb 6.93855 -56.2632
lclavicle -3.23025e-015 -1.98785e-016
lhumerus -17.8517 -7.89563 92.34
lradius 19.8996
lwrist 4.5607
lhand -24.7667 -4.1899
lfingers 7.12502
lthumb 1.73689 25.7828
rfemur -10.8543 -3.89615 20.2326
rtibia 19.4977
rfoot -13.9065 -1.63077
rtoes 8.0233
lfemur -9.96697 8.24042 -18.3026
ltibia 16.8354
lfoot -11.6511 1.64764
ltoes -8.44909
23
root 0.462165 17.5631 -13.7873 5.96326 -0.747197 -1.63785
lowerback -1.07074 -0.345242 0.347944
upperback 4.384 -0.547843 1.62749
thorax 5.14115 -0.296012 1.4589
lowerneck -15.9873 0.656028 -2.2536
upperneck 25.9137 1.52081 0.164572
head 11.0003 0.486505 0.655473
rclavicle -7.70291e-015 1.05356e-014
rhumerus -18.35 -11.0749 -84.7966
rradius 24.2916
rwrist 32.2478
rhand -19.3742 -26.4066
rfingers 7.12502
rthumb 6.94393 -56.2727
lclavicle -7.70291e-015 1.05356e-014
lhumerus -17.8716 -8.04385 92.3903
lradius 19.9513
lwrist 4.63122
lhand -24.7709 -4.22667
lfingers 7.12502
lthumb 1.73279 25.746
rfemur -10.8545 -3.90775 20.2365
rtibia 19.4911
rfoot -13.9044 -1.60222
rtoes 8.0412
lfemur -9.9639 8.23562 -18.2978
ltibia 16.8336
lfoot -11.6467 1.6679
ltoes -8.42875
24
root 0.462413 17.5632 -13.7869 5.96478 -0.763584 -1.64337
lowerback -1.091 -0.339098 0.348248
upperback 4.3755 -0.539726 1.62621
thorax 5.1436 -0.291916 1.45776
lowerneck -16.0014 0.654396 -2.24759
upperneck 25.954 1.51793 0.163905
head 11.0182 0.48517 0.654185
rclavicle -4.32357e-015 -1.19271e-014
rhumerus -18.346 -11.1147 -84.7893
rradius 24.2541
rwrist 32.3016
rhand -19.3678 -26.4193
rfingers 7.12502
rthumb 6.95009 -56.2852
lclavicle -4.32357e-015 -1.19271e-014
lhumerus -17.8937 -8.18672 92.4355
lradius 20.0122
lwrist 4.7058
lhand -24.7802 -4.26131
lfingers 7.12502
lthumb 1.72383 25.7115
rfemur -10.8526 -3.91623 20.2403
rtibia 19.4843
rfoot -13.9042 -1.57565
rtoes 8.06773
lfemur -9.95946 8.23064 -18.2927
ltibia 16.8324
lfoot -11.6435 1.6881
ltoes -8.40778
25
root 0.462804 17.5633 -13.7864 5.96433 -0.781227 -1.64889
lowerback -1.11182 -0.333225 0.350732
upperback 4.3683 -0.532083 1.62493
thorax 5.14771 -0.287973 1.45536
lowerneck -16.0149 0.652736 -2.24231
upperneck 25.9899 1.51617 0.159578
head 11.0345 0.483872 0.651815
rclavicle 8.59744e-015 -1.53064e-014
rhumerus -18.3405 -11.157 -84.7819
rradius 24.2152
rwrist 32.358
rhand -19.3692 -26.4216
rfingers 7.12502
rthumb 6.9488 -56.2875
lclavicle 8.59744e-015 -1.53064e-014
lhumerus -17.9173 -8.32443 92.476
lradius 20.0793
lwrist 4.78878
lhand -24.7873 -4.28537
lfingers 7.12502
lthumb 1.71699 25.6875
rfemur -10.8483 -3.92057 20.2437
rtibia 19.4772
rfoot -13.9037 -1.55269
rtoes 8.09545
lfemur -9.95349 8.2296 -18.2879
ltibia 16.833
lfoot -11.6423 1.7065
ltoes -8.39667
26
root 0.463308 17.5633 -13.7858 5.96284 -0.800762 -1.65517
lowerback -1.13307 -0.326437 0.356815
upperback 4.36224 -0.523361 1.62312
thorax 5.15321 -0.283339 1.45048
lowerneck -16.0264 0.652466 -2.23407
upperneck 26.0213 1.51661 0.151092
head 11.0487 0.483411 0.647696
rclavicle 2.5345e-015 -8.34896e-015
rhumerus -18.3361 -11.1955 -84.7759
rradius 24.1816
rwrist 32.4059
rhand -19.3768 -26.4146
rfingers 7.12502
rthumb 6.94142 -56.2808
lclavicle 2.5345e-015 -8.34896e-015
lhumerus -17.9415 -8.45229 92.5105
lradius 20.1499
lwrist 4.87386
lhand -24.7914 -4.28535
lfingers 7.12502
lthumb 1.71303 25.6875
rfemur -10.8433 -3.92168 20.2475
rtibia 19.4705
rfoot -13.9023 -1.53238
rtoes 8.11594
lfemur -9.9468 8.23073 -18.2827
ltibia 16.8351
lfoot -11.6426 1.72406
ltoes -8.38567
27
root 0.463916 17.5633 -13.7852 5.95915 -0.822059 -1.6608
lowerback -1.15302 -0.319298 0.364821
upperback 4.35731 -0.514202 1.62029
thorax 5.15911 -0.278389 1.44349
lowerneck -16.0387 0.652086 -2.22729
upperneck 26.0512 1.51747 0.142094
head 11.0625 0.482944 0.64369
rclavicle -1.73937e-015 -1.90833e-014
rhumerus -18.3332 -11.2313 -84.7717
rradius 24.1526
rwrist 32.4503
rhand -19.3911 -26.3952
rfingers 7.12502
rthumb 6.92767 -56.2618
lclavicle -1.73937e-015 -1.90833e-014
lhumerus -17.9643 -8.56998 92.5383
lradius 20.2202
lwrist 4.96395
lhand -24.7982 -4.27107
lfingers 7.12502
lthumb 1.70643 25.7018
rfemur -10.8369 -3.91935 20.2502
rtibia 19.465
rfoot -13.901 -1.51443
rtoes 8.13262
lfemur -9.93772 8.2355 -18.2781
ltibia 16.8381
lfoot -11.6456 1.73915
ltoes -8.37968
28
root 0.464576 17.5632 -13.7846 5.9532 -0.844698 -1.66481
lowerback -1.1686 -0.312049 0.372999
upperback 4.35149 -0.504792 1.61667
thorax 5.16156 -0.27328 1.4356
lowerneck -16.0518 0.652061 -2.22446
upperneck 26.0818 1.51928 0.135604
head 11.0767 0.48282 0.641406
rclavicle 5.61567e-015 3.37934e-015
rhumerus -18.3333 -11.2632 -84.7689
rradius 24.1275
rwrist 32.4881
rhand -19.4095 -26.3733
rfingers 7.12502
rthumb 6.90986 -56.2405
lclavicle 5.61567e-015 3.37934e-015
lhumerus -17.9875 -8.67132 92.5596
lradius 20.287
lwrist 5.05322
lhand -24.802 -4.2439
lfingers 7.12502
lthumb 1.70279 25.7291
rfemur -10.83 -3.91422 20.251
rtibia 19.4624
rfoot -13.8994 -1.50046
rtoes 8.12482
lfemur -9.92587 8.24256 -18.2749
ltibia 16.84
lfoot -11.6489 1.75273
ltoes -8.37325
